<svg enable-background="new 0 0 32 32" viewBox="0 0 32 32" xmlns="http://www.w3.org/2000/svg"><path d="m4.637 24.096c-.384 0-.708-.072-.972-.216s-.492-.338-.684-.584l.504-.432c.155.198.33.35.524.456.195.107.42.16.676.16.267 0 .469-.055.608-.164s.207-.26.207-.453c0-.154-.047-.282-.14-.384-.093-.101-.268-.17-.524-.208l-.352-.056c-.197-.026-.378-.069-.544-.128s-.307-.136-.424-.232c-.118-.096-.209-.213-.276-.352s-.1-.304-.1-.496c0-.203.037-.382.112-.54.075-.157.179-.288.312-.392s.292-.183.476-.236.385-.08.604-.08c.352 0 .645.059.88.176s.44.28.616.488l-.472.448c-.102-.133-.239-.25-.412-.348s-.385-.148-.636-.148c-.256 0-.447.053-.572.16-.125.106-.188.248-.188.424 0 .187.06.323.18.408s.3.146.54.184l.352.056c.458.069.788.203.988.4.2.198.3.456.3.776 0 .405-.142.725-.424.96s-.669.353-1.159.353zm5.663-.096c-.229 0-.401-.064-.516-.192s-.185-.293-.212-.496h-.04c-.085.256-.232.451-.44.584s-.461.2-.76.2c-.432 0-.768-.111-1.008-.332s-.36-.524-.36-.908c0-.4.146-.705.436-.916.291-.21.735-.316 1.332-.316h.784v-.376c0-.277-.075-.491-.224-.64s-.381-.224-.696-.224c-.245 0-.449.055-.612.164s-.297.252-.404.428l-.448-.408c.123-.224.308-.415.556-.572s.564-.236.948-.236c.518 0 .917.124 1.2.372s.424.597.424 1.049v2.179h.464v.64zm-1.8-.504c.293 0 .536-.067.728-.2s.288-.304.288-.512v-.64h-.791c-.342 0-.591.051-.748.152-.158.102-.236.248-.236.44v.16c0 .192.068.34.204.444.136.103.321.156.555.156zm3.112.504v-4.144h.744v.672h.04c.091-.211.228-.392.412-.542s.415-.226.692-.226.529.066.756.198.394.344.5.634h.016c.075-.222.217-.416.428-.583.21-.167.489-.25.836-.25.416 0 .741.139.976.416.234.278.352.669.352 1.176v2.649h-.744v-2.542c0-.353-.068-.618-.204-.794s-.348-.265-.636-.265c-.123 0-.239.016-.348.048s-.207.079-.292.14c-.085.062-.153.139-.204.232-.051.094-.076.205-.076.333v2.848h-.744v-2.542c0-.706-.277-1.059-.832-1.059-.118 0-.232.016-.344.048s-.21.079-.296.14-.155.139-.208.232c-.053.094-.08.205-.08.333v2.848zm7.016-4.145h.744v.672h.032c.096-.253.247-.445.452-.574.206-.129.452-.194.74-.194.261 0 .495.05.7.148.205.099.38.243.524.432s.253.417.328.684.112.568.112.904-.038.637-.112.904-.184.495-.328.684-.319.333-.524.432c-.206.098-.439.148-.7.148-.288 0-.535-.065-.74-.194s-.356-.321-.452-.574h-.032v2.273h-.744zm1.752 3.601c.336 0 .601-.107.796-.322.194-.214.292-.499.292-.853v-.708c0-.354-.098-.638-.292-.853-.195-.214-.46-.322-.796-.322-.139 0-.27.019-.392.057-.123.037-.229.091-.32.161-.09.07-.163.15-.216.241s-.08.193-.08.306v1.528c0 .113.027.215.08.306s.125.172.216.241c.091.07.197.124.32.161.123.038.253.057.392.057zm3.704.544c-.256 0-.45-.069-.58-.208-.131-.139-.196-.323-.196-.552v-5.16h.744v5.28h.592v.64zm3.033.096c-.288 0-.548-.052-.78-.156s-.429-.249-.592-.436-.288-.413-.376-.68-.132-.565-.132-.896c0-.326.044-.623.132-.892.088-.27.213-.498.376-.684.163-.187.36-.332.592-.436s.492-.156.78-.156.545.052.772.156.417.246.572.427.272.396.352.646.12.518.12.805v.311h-2.92v.168c0 .347.101.631.304.852s.491.332.864.332c.261 0 .485-.059.672-.176s.336-.282.448-.496l.48.41c-.144.274-.36.493-.648.656s-.627.245-1.016.245zm0-3.737c-.16 0-.308.029-.444.087-.136.059-.253.139-.352.243s-.175.227-.228.37-.08.299-.08.469v.056h2.128v-.08c0-.344-.092-.621-.276-.831-.184-.209-.434-.314-.748-.314zm3.883-4.719h-2.64v-8.64c0-.096-.038-.187-.105-.254l-6-6c-.067-.068-.159-.106-.255-.106h-18c-.199 0-.36.161-.36.36v14.64h-2.64c-.199 0-.36.161-.36.36v11c0 .199.161.36.36.36h2.64v3.64c0 .199.161.36.36.36h24c.199 0 .36-.161.36-.36v-3.64h2.64c.199 0 .36-.161.36-.36v-11c0-.199-.161-.36-.36-.36zm-8.64-13.77 4.771 4.771h-4.771zm-18-.51h17.28v5.64c0 .199.161.36.36.36h5.64v8.28h-23.28zm23.28 29.28h-23.28v-3.28h23.28zm3-4h-29.28v-10.28h29.28z"/><path d="m0 0h32v32h-32z" fill="none"/></svg>